<svg viewBox="0 0 760 186" fill="none" xmlns="http://www.w3.org/2000/svg"><title>Flamingo Logo</title><mask id="mask0_17080_147848" maskUnits="userSpaceOnUse" x="692" y="89" width="27" height="41"><path fill-rule="evenodd" clip-rule="evenodd" d="M692.333 89H718.328V129.133H692.333V89Z" fill="white"></path></mask><path fill-rule="evenodd" clip-rule="evenodd" d="M716.164 111.392C716.018 112.212 715.557 112.933 714.889 113.391C712.788 114.924 707.686 115.332 704.356 114.275C704.697 112.211 705.235 110.62 706.09 109.375C706.098 109.366 706.103 109.357 706.109 109.348C707.266 107.682 709.127 106.703 711.103 106.726C712.955 106.727 714.656 107.531 715.544 108.824C716.07 109.561 716.292 110.484 716.164 111.392M716.248 108.303C715.201 106.777 713.229 105.828 711.104 105.828C708.838 105.803 706.704 106.931 705.388 108.851C705.379 108.861 705.372 108.872 705.365 108.884C705.362 108.889 705.361 108.896 705.358 108.903C704.45 110.243 703.878 111.903 703.52 113.966C699.383 112.255 699.289 109.336 699.456 108.123C699.589 107.316 699.843 106.536 700.205 105.81C700.803 104.545 701.615 103.317 702.399 102.13C704.193 99.4148 706.048 96.6096 705.237 93.3546C705.042 92.5696 704.623 91.4708 703.737 90.6918C702.533 89.6295 700.708 89.3786 698.969 90.0336C696.307 91.0365 694.403 93.8598 693.744 97.7778C693.703 98.0233 693.861 98.2554 694.096 98.2985C694.331 98.341 694.555 98.1771 694.596 97.9323C695.194 94.3407 696.895 91.7703 699.257 90.88C700.706 90.333 702.206 90.5219 703.174 91.3778C703.731 91.8674 704.164 92.6491 704.395 93.5799C705.11 96.4383 703.444 98.9541 701.682 101.62C700.88 102.834 700.049 104.089 699.425 105.413C699.024 106.224 698.746 107.094 698.603 107.995C698.192 110.973 699.97 113.521 703.382 114.874C702.917 118.243 702.914 122.593 702.914 128.228C702.914 128.476 703.108 128.677 703.347 128.677C703.585 128.677 703.778 128.476 703.778 128.228C703.778 122.552 703.812 118.346 704.223 115.175C705.496 115.557 707.075 115.761 708.68 115.761C711.235 115.761 713.853 115.247 715.386 114.125C716.282 113.47 716.847 112.577 717.017 111.542C717.182 110.399 716.906 109.234 716.248 108.303" fill="#6611F5"></path><path fill-rule="evenodd" clip-rule="evenodd" d="M616.109 147.855C624.523 147.855 631.155 148.339 636.377 149.844C653.687 154.823 655.785 169.809 655.79 175.514C655.79 179.221 655.265 182.721 654.269 186H641.601C642.039 184.04 642.263 182.009 642.263 179.921C642.263 171.649 637.947 165.584 628.186 163.142C624.936 162.328 621.078 162.05 616.573 162.05H584.137C583.383 162.05 582.563 162.056 581.701 162.061L581.552 162.062C579.471 162.097 576.915 162.292 573.814 163.213C567.085 165.207 559.278 170.334 559.031 182.552C559.007 183.722 559.052 184.872 559.164 186H543.668C543.647 185.266 543.653 184.518 543.687 183.756C544.22 171.956 553.982 164.18 566.213 161.165C557.444 159.673 549.431 155.738 548.806 145.513C548.387 137.743 554.303 127.672 576.571 124.28C562.889 117.855 553.626 104.911 553.626 88.9693C553.626 66.0013 572.839 49.2576 596.793 49.2576C609.815 49.2576 621.428 54.2134 629.321 62.4201C634.588 58.6855 641.77 51.4995 642.418 40.8327C642.504 39.4226 644.109 38.7028 645.164 39.6055L653.303 46.5378C654.105 47.2222 654.386 48.7384 654.008 49.7886C650.225 60.2785 640.584 65.0337 633.757 67.96C637.695 73.9424 639.953 81.0871 639.953 88.9634C639.953 107.689 627.183 122.274 609.483 127.023C609.48 127.026 609.479 127.029 609.478 127.033C609.476 127.037 609.475 127.041 609.471 127.041C605.39 128.174 601.252 128.752 597.274 128.752C595.438 128.752 593.019 128.833 590.898 128.905C590.47 128.919 590.053 128.934 589.657 128.946C574.421 129.442 561.559 132.351 562.287 141.171C562.574 144.681 565.073 146.711 570.65 147.372C574.777 147.862 580.424 147.859 587.595 147.856C588.191 147.856 588.798 147.855 589.416 147.855H616.109ZM596.787 54.8034C578.491 54.8034 569.658 69.9541 569.658 89.0106C569.658 108.067 578.491 123.005 596.787 123.005C615.083 123.005 623.916 108.067 623.916 89.0106C623.916 69.9541 615.083 54.8034 596.787 54.8034ZM653.268 106.775C653.268 74.8628 674.104 49.2753 706.259 49.2753C738.415 49.2753 759.25 74.8628 759.25 106.775C759.25 138.687 738.415 164.275 706.259 164.275C674.104 164.275 653.268 138.687 653.268 106.775ZM670.498 106.781C670.498 137.454 682.678 158.758 706.259 158.758C729.84 158.758 742.02 137.454 742.02 106.781C742.02 76.1077 729.84 54.8034 706.259 54.8034C682.678 54.8034 670.498 76.1018 670.498 106.781ZM419.289 22.9503C424.861 22.9503 430.438 19.1272 430.438 11.4752C430.438 3.8231 424.866 -0.0058863 419.289 1.35218e-05C413.901 1.35218e-05 408.141 3.8231 408.141 11.4752C408.141 19.1272 413.712 22.9503 419.289 22.9503ZM105.924 160.233V9.63441C105.924 8.63734 105.139 7.82317 104.165 7.82317H86.0118C85.0431 7.82317 84.2521 8.63144 84.2521 9.63441V10.7436C84.2521 11.5047 84.7565 12.1359 85.4386 12.3188C85.4386 12.3188 85.4443 12.3247 85.4501 12.3247C87.6339 12.8675 89.2503 14.8617 90.1616 17.4989C91.1246 20.2659 91.2564 23.7409 91.2564 26.9386V160.233C91.2564 161.23 92.0417 162.044 93.0161 162.044H104.165C105.133 162.044 105.924 161.236 105.924 160.233ZM428.197 160.239V55.0866C428.197 54.0836 427.411 53.2695 426.437 53.2754H408.284C407.315 53.2754 406.524 54.0836 406.524 55.0866V56.1958C406.524 56.9568 407.029 57.5881 407.711 57.771C407.711 57.771 407.713 57.7733 407.716 57.775C407.718 57.7761 407.72 57.7769 407.722 57.7769C409.906 58.3197 411.523 60.3138 412.434 62.9511C413.397 65.7181 413.529 69.1931 413.529 72.3908V160.239C413.529 161.236 414.314 162.05 415.288 162.05H426.437C427.406 162.05 428.197 161.242 428.197 160.239ZM69.8537 27.4224L75.9008 18.4074C76.4224 17.493 76.3536 15.8056 75.4767 15.1625C53.5238 -1.12685 34.6087 9.49282 28.5387 16.0062C20.4281 24.7085 17.5794 34.4844 17.5794 50.0895V62.426H4.84329C4.21852 62.426 3.62241 62.721 3.23265 63.2225L0.991498 66.5322C0.343801 67.3641 0.922716 68.6031 1.96018 68.6031H17.5852L17.5794 160.239C17.5794 161.236 18.3647 162.05 19.3391 162.05H30.4818C31.4505 162.05 32.2415 161.242 32.2415 160.239V68.6031H57.5876C58.2124 68.6031 58.8085 68.3081 59.1983 67.8066L61.4394 64.4968C62.0871 63.6649 61.5082 62.426 60.4707 62.426H32.2415V41.1099C32.2415 29.2513 32.8949 22.8677 37.1307 17.1213C39.8247 13.4634 44.1694 11.4516 49.1446 11.5578C55.5929 11.6935 62.2189 15.6581 66.919 27.2513C67.4406 28.5315 69.1774 28.62 69.8537 27.4224ZM173.795 49.2753C186.554 48.8741 196.327 52.0541 203.428 57.0276C209.407 60.9746 213.964 66.4379 216.336 73.4704C218.642 80.3141 218.615 87.7979 218.568 101.241C218.565 101.937 218.563 102.648 218.56 103.377V160.233C218.56 161.23 217.775 162.044 216.801 162.044H205.652C204.684 162.044 203.893 161.236 203.893 160.233V133.129C197.582 149.313 183.877 164.304 158.348 164.304C139.089 164.304 123.12 152.416 122.845 134.103C122.569 115.813 136.228 106.214 155.722 102.633C160.514 101.754 165.604 100.981 170.877 100.297C190.463 97.7659 203.893 93.2997 203.893 80.9455C203.893 73.1991 198.189 53.5291 173.474 54.8683C158.955 55.6589 147.463 66.6502 146.408 80.9042C146.305 82.2848 144.935 83.1343 143.823 82.3438L135.013 75.9543C134.171 75.2581 133.494 73.7654 134.085 72.3849C138.32 62.5086 154.14 49.8948 173.795 49.2753ZM203.893 108.942V108.822V94.1198C195.1 102.509 183.717 104.651 172.809 106.439C154.794 109.394 139.582 114.657 139.582 132.74C139.582 149.289 151.532 155.543 163.294 155.543C188.99 155.543 200.127 133.572 203.251 117.896C203.893 114.665 203.893 111.297 203.893 108.942ZM532.997 160.239V98.5624C532.997 96.5529 533.003 94.6811 533.007 92.9301C533.039 81.5557 533.057 75.2804 531.542 69.5235C528.79 59.0454 519.826 50.2016 505.708 49.3579C481.348 47.9006 468.904 67.7299 464.737 77.4528V55.0925C464.737 54.0954 463.952 53.2813 462.977 53.2813H444.825C443.856 53.2813 443.065 54.0895 443.065 55.0925V56.2017C443.065 56.9627 443.569 57.594 444.251 57.7769C444.251 57.7769 444.253 57.7788 444.256 57.7805C444.258 57.7817 444.26 57.7828 444.263 57.7828C446.447 58.3256 448.063 60.3197 448.974 62.957C449.937 65.724 450.069 69.199 450.069 72.3967V160.239C450.069 161.236 450.854 162.05 451.829 162.05H462.977C463.946 162.05 464.737 161.242 464.737 160.239V105.259C464.731 98.1081 465.408 88.4265 469.259 79.854C474.43 68.3612 484.753 59.7947 497.752 60.0189C506.637 60.1722 512.787 64.0897 515.899 71.7064C517.877 76.5442 518.33 82.3851 518.33 89.3586V160.239C518.33 161.236 519.115 162.05 520.089 162.05H531.238C532.206 162.05 532.997 161.242 532.997 160.239ZM391.633 160.239V98.5624C391.633 96.5531 391.638 94.6814 391.643 92.9304C391.675 81.5559 391.692 75.2805 390.177 69.5235C387.426 59.0454 378.461 50.2016 364.344 49.3579C340.001 47.9065 327.557 67.7063 323.384 77.4351C323.172 74.4793 322.708 71.9542 322.066 69.5235C319.315 59.0454 310.195 50.2016 296.078 49.3579C271.717 47.9006 259.274 67.7299 255.107 77.4528V55.0925C255.107 54.0954 254.321 53.2813 253.347 53.2813H235.194C234.226 53.2813 233.435 54.0895 233.435 55.0925V56.2017C233.435 56.9627 233.939 57.594 234.621 57.7769C234.621 57.7769 234.627 57.7828 234.633 57.7828C236.816 58.3256 238.433 60.3197 239.344 62.957C240.307 65.724 240.439 69.199 240.439 72.3967V160.239C240.439 161.236 241.224 162.05 242.199 162.05H253.347C254.316 162.05 255.107 161.242 255.107 160.239V105.259C255.101 98.1081 255.777 88.4265 259.629 79.854C264.799 68.3612 275.122 59.7947 288.122 60.0189C297.006 60.1722 303.157 64.0897 306.269 71.7064C308.246 76.5442 308.699 82.3851 308.699 89.3586V160.239C308.699 161.236 309.484 162.05 310.459 162.05H321.607C322.576 162.05 323.367 161.242 323.367 160.239L323.373 105.259C323.367 98.1081 324.043 88.4265 327.895 79.854C333.065 68.3612 343.388 59.7947 356.388 60.0189C365.272 60.1722 371.423 64.0897 374.535 71.7064C376.513 76.5442 376.965 82.3851 376.965 89.3586V160.239C376.965 161.236 377.751 162.05 378.725 162.05H389.874C390.842 162.05 391.633 161.242 391.633 160.239Z" fill="#6611F5"></path><defs><rect width="34.6603" height="40.133" fill="white" transform="translate(688 89)"></rect></defs></svg>